<svg width="400" height="801" viewBox="0 0 400 801" fill="none" xmlns="http://www.w3.org/2000/svg">
<path d="M400 258.5C400 401.266 287.694 488.5 199.283 509C128.076 481 0 372.266 0 229.5C0 86.7344 88.4303 0 199.283 0C310.136 0 400 115.734 400 258.5Z" fill="#D65B5B"/>
<path d="M379 258.5C379 401.266 272.59 488.5 188.821 509C121.352 481 0 372.266 0 229.5C0 86.7344 83.7877 0 188.821 0C293.854 0 379 115.734 379 258.5Z" fill="#FB6060"/>
<path d="M191.729 506C191.729 506 263.008 559.09 191.729 598.157C120.45 637.223 154.241 682.801 191.729 695.322C229.217 707.843 191.729 800 191.729 800M191.729 506L155.297 515.516L176.945 540.559L191.729 506ZM191.729 506L244 515.516V532.545L191.729 506Z" stroke="black" stroke-width="2"/>
<ellipse cx="316.752" cy="182.122" rx="17.7457" ry="80.3128" transform="rotate(-12.6715 316.752 182.122)" fill="#FFFCFC"/>
<ellipse cx="320.548" cy="345.448" rx="12.2644" ry="32.3367" transform="rotate(15.6812 320.548 345.448)" fill="#FFFCFC"/>
</svg>
