<svg width="97" height="164" viewBox="0 0 97 164" fill="none" xmlns="http://www.w3.org/2000/svg">
<path d="M97 52.6694C97 81.7579 69.7658 99.5319 48.3262 103.709C31.0585 98.0037 0 75.8491 0 46.7606C0 17.6721 21.4443 0 48.3262 0C75.208 0 97 23.5809 97 52.6694Z" fill="#D65B5B"/>
<path d="M91.9075 52.6694C91.9075 81.7579 66.1031 99.5319 45.789 103.709C29.428 98.0037 0 75.8491 0 46.7606C0 17.6721 20.3185 0 45.789 0C71.2596 0 91.9075 23.5809 91.9075 52.6694Z" fill="#FB6060"/>
<path d="M46.4943 103.097C46.4943 103.097 63.7795 113.915 46.4943 121.874C29.2091 129.834 37.4034 139.121 46.4943 141.672C55.5851 144.223 46.4943 163 46.4943 163M46.4943 103.097L37.6595 105.036L42.9091 110.139L46.4943 103.097ZM46.4943 103.097L59.17 105.036V108.506L46.4943 103.097Z" stroke="black" stroke-width="2"/>
<ellipse rx="4.27278" ry="16.5269" transform="matrix(0.982621 -0.185626 0.258501 0.966011 76.8124 37.1073)" fill="#FFFCFC"/>
<ellipse rx="2.942" ry="6.68809" transform="matrix(0.973291 0.229574 -0.316902 0.948458 77.7328 70.385)" fill="#FFFCFC"/>
</svg>
